<svg id="f1e6deb9-f325-4315-90bb-b9a9fbc35917" data-name="Horizontal" xmlns="http://www.w3.org/2000/svg" viewBox="0 0 400 400"><g id="b236a511-aa31-46f4-9ec8-b705067788da" data-name="Expanded"><path d="M252.1,74.77l-25,5L250,52.45c-.83-.21-1.67-.44-2.54-.65s-1.69-.42-2.56-.66l-25.49,30.4a2.53,2.53,0,0,0,2.5,4.08l24.51-4.89L199.58,132l15.53-3.87-43.58,49.18,5-12.07,10.46-25,.19-.5.3-.66.06-.17-8.56,2.9,0,0-6,2L196.2,99.48a2.52,2.52,0,0,0-.89-3.28,2.55,2.55,0,0,0-2-.33L185,97.79l-16.84,3.87,18.57-46.08,1.51-3.74,2.11-5.2-.57,0-2.09.17c-.91.07-1.82.17-2.71.24l-2.51,6.23-.89,2.2-19.45,48.31a2.53,2.53,0,0,0,3,3.39l24.69-5.67-23.57,45.06a2.13,2.13,0,0,0-.23.59v.05a2.42,2.42,0,0,0,.19,1.6,2.57,2.57,0,0,0,3.17,1.31l9.81-3.32-10.21,24.37-2.16,5.16,0,0-4.81,11.5a2.55,2.55,0,0,0,4.31,2.6L223.4,126a2.53,2.53,0,0,0-2.56-4.12l-7.14,1.8,40.81-44.72A2.53,2.53,0,0,0,252.1,74.77Z" fill="#fff"/><polygon points="186.71 140.38 187.02 140.31 187.21 139.81 186.71 140.38" fill="#33363a"/><path d="M359.57,204.23a17.92,17.92,0,0,1-.15,2.43c.05-.81.07-1.63.11-2.43Z" fill="#33363a"/><path d="M260.36,52.28c-.65-.27-1.33-.52-2-.8l-2-.76c-3.74-1.44-7.55-2.7-11.41-3.85q-2.19-.63-4.38-1.2c-1.56-.42-3.13-.8-4.71-1.16A158.86,158.86,0,0,0,200,40.43C112,40.43,40.43,112,40.43,200c0,1.42,0,2.81,0,4.23,0,.8.06,1.62.11,2.43,3.48,84.9,73.65,152.91,159.42,152.91s155.94-68,159.42-152.91c.05-.81.07-1.63.11-2.43,0-1.42,0-2.81,0-4.23C359.57,133.36,318.51,76.13,260.36,52.28Zm84.31,153.11c-2,12.64-35.46,28.6-91.51,35a52.9,52.9,0,0,1,.52,7.48,52.15,52.15,0,0,1-.5,7.23c36.39-4.14,69.19-12.59,88.45-25C327.72,295.53,269.51,344.78,200,344.78S72.28,295.53,58.37,230.12c19,12.28,51.36,20.69,87.29,24.87a48.67,48.67,0,0,1-.49-7.08,53.12,53.12,0,0,1,.55-7.6c-55.37-6.54-88.45-22.37-90.39-34.92-.07-1.78-.11-3.59-.11-5.39C55.22,121.5,118,57.4,196,55.26l2.24,0c.57,0,1.16,0,1.73,0h.47a143.56,143.56,0,0,1,16,1h0a140.18,140.18,0,0,1,24.34,4.93c1.44.42,2.88.86,4.3,1.33.69.23,1.39.46,2.07.7s1.37.48,2.05.72c55.65,20.2,95.51,73.61,95.51,136.15C344.78,201.8,344.74,203.61,344.67,205.39Z" fill="#fff"/><path d="M228.34,242.55a29.41,29.41,0,0,0-57.82-.09,29.31,29.31,0,0,0,1,14.82,29.39,29.39,0,0,0,55.71.06,28.88,28.88,0,0,0,1.57-9.43A29.52,29.52,0,0,0,228.34,242.55Zm-8,15.13a23,23,0,0,1-41.8,0,23.06,23.06,0,0,1-1.59-14.84,23.08,23.08,0,0,1,45,.06,23.4,23.4,0,0,1,.55,5A22.81,22.81,0,0,1,220.31,257.68Z" fill="#fff"/><path d="M253.16,240.43a54.25,54.25,0,0,0-107.44-.12,53.12,53.12,0,0,0-.55,7.6,48.67,48.67,0,0,0,.49,7.08,54.23,54.23,0,0,0,107.52.15,52.15,52.15,0,0,0,.5-7.23A52.9,52.9,0,0,0,253.16,240.43Zm-15.24,16.19a39.46,39.46,0,0,1-77-.1,39.22,39.22,0,0,1-.46-14.76,39.44,39.44,0,0,1,77.94.09,37.83,37.83,0,0,1,.49,6.06A39.47,39.47,0,0,1,237.92,256.62Z" fill="#fff"/></g></svg>