<svg id="a2cdead2-7d0b-4574-b009-6faa4eb3e3dc" data-name="Horizontal" xmlns="http://www.w3.org/2000/svg" viewBox="0 0 400 400"><g id="a60e268e-e0f5-4c1e-85eb-11ff685bd99a" data-name="Expanded"><path d="M129.18,177.18a5.71,5.71,0,0,0-2.56-4.28,9.86,9.86,0,0,0-5.67-1.52,10.69,10.69,0,0,0-4.23.76,6.51,6.51,0,0,0-2.77,2.1,5,5,0,0,0-1,3,4.39,4.39,0,0,0,.67,2.45,5.68,5.68,0,0,0,1.77,1.71,11.91,11.91,0,0,0,2.35,1.15q1.27.45,2.43.75l3.89,1a30.32,30.32,0,0,1,3.9,1.26,15.63,15.63,0,0,1,3.71,2.1,10,10,0,0,1,2.76,3.22,9.34,9.34,0,0,1,1.06,4.6,10.61,10.61,0,0,1-1.74,6,11.67,11.67,0,0,1-5,4.14,19,19,0,0,1-8,1.51,19.17,19.17,0,0,1-7.72-1.42,11.75,11.75,0,0,1-5.11-4,11.57,11.57,0,0,1-2-6.2h6a6.09,6.09,0,0,0,1.41,3.58,7.34,7.34,0,0,0,3.16,2.12,12.55,12.55,0,0,0,4.25.69,12,12,0,0,0,4.53-.81,7.3,7.3,0,0,0,3.13-2.25,5.25,5.25,0,0,0,1.15-3.39,4.17,4.17,0,0,0-1-2.89,7.61,7.61,0,0,0-2.7-1.86,26.32,26.32,0,0,0-3.83-1.31l-4.7-1.28a18.16,18.16,0,0,1-7.57-3.82,8.6,8.6,0,0,1-2.78-6.68,10,10,0,0,1,1.86-6,12.3,12.3,0,0,1,5.05-4,17.41,17.41,0,0,1,7.19-1.43,16.87,16.87,0,0,1,7.13,1.42,12,12,0,0,1,4.88,3.89,9.8,9.8,0,0,1,1.87,5.68Z" fill="#fff"/><path d="M156.13,176.68v4.66H139.84v-4.66Zm-11.92-7.15H150v28.21a5,5,0,0,0,.5,2.54,2.57,2.57,0,0,0,1.31,1.14,5,5,0,0,0,1.76.3,7.24,7.24,0,0,0,1.22-.09l.82-.16,1.05,4.8a11.2,11.2,0,0,1-1.44.4,12.2,12.2,0,0,1-2.33.22,10.14,10.14,0,0,1-4.27-.82,7.38,7.38,0,0,1-3.21-2.64,7.78,7.78,0,0,1-1.22-4.48Z" fill="#fff"/><path d="M174.79,207.1a13.73,13.73,0,0,1-7.32-1.92,12.93,12.93,0,0,1-4.85-5.38,17.85,17.85,0,0,1-1.73-8.08,18,18,0,0,1,1.73-8.11,12.92,12.92,0,0,1,4.85-5.4,14.91,14.91,0,0,1,14.64,0,12.88,12.88,0,0,1,4.86,5.4,18,18,0,0,1,1.73,8.11A17.85,17.85,0,0,1,187,199.8a12.88,12.88,0,0,1-4.86,5.38A13.68,13.68,0,0,1,174.79,207.1Zm0-4.87a7,7,0,0,0,4.51-1.44A8.53,8.53,0,0,0,182,197a16.52,16.52,0,0,0,0-10.52,8.63,8.63,0,0,0-2.65-3.85,7.73,7.73,0,0,0-9,0,8.49,8.49,0,0,0-2.66,3.85,16.34,16.34,0,0,0,0,10.52,8.39,8.39,0,0,0,2.66,3.82A7,7,0,0,0,174.81,202.23Z" fill="#fff"/><path d="M195.16,206.5V176.68h5.61v4.73h.31a7.26,7.26,0,0,1,2.89-3.79,8.19,8.19,0,0,1,4.69-1.39c.36,0,.79,0,1.29,0a11.67,11.67,0,0,1,1.17.1v5.55a9.53,9.53,0,0,0-1.24-.22,12,12,0,0,0-1.79-.13,7.67,7.67,0,0,0-3.66.86,6.61,6.61,0,0,0-2.53,2.39,6.53,6.53,0,0,0-.93,3.47V206.5Z" fill="#fff"/><path d="M216.17,206.5V176.68h5.57v4.85h.37a7.74,7.74,0,0,1,3-3.85,9,9,0,0,1,5.07-1.39,8.6,8.6,0,0,1,5,1.4,8.24,8.24,0,0,1,3,3.84h.31a8.47,8.47,0,0,1,3.4-3.82,10.41,10.41,0,0,1,5.55-1.42,9,9,0,0,1,6.63,2.54c1.72,1.7,2.57,4.25,2.57,7.67v20h-5.8V187a5.36,5.36,0,0,0-1.65-4.38,6,6,0,0,0-3.94-1.36,5.64,5.64,0,0,0-4.41,1.74,6.35,6.35,0,0,0-1.57,4.45v19h-5.79V186.68a5.23,5.23,0,0,0-1.52-3.91,5.41,5.41,0,0,0-3.94-1.47,5.71,5.71,0,0,0-3,.86,6.46,6.46,0,0,0-2.23,2.4,7.28,7.28,0,0,0-.84,3.55V206.5Z" fill="#fff"/><path d="M277.33,207.1a14.58,14.58,0,0,1-7.58-1.89,12.59,12.59,0,0,1-4.89-5.34,19.84,19.84,0,0,1,0-16.16,13.12,13.12,0,0,1,4.81-5.46,13.28,13.28,0,0,1,7.26-2,14.78,14.78,0,0,1,4.89.83,11.84,11.84,0,0,1,4.25,2.62,12.33,12.33,0,0,1,3,4.63,19.31,19.31,0,0,1,1.09,6.91v2.06H266.42V189h18a8.63,8.63,0,0,0-.93-4.07,7.07,7.07,0,0,0-2.61-2.81,7.43,7.43,0,0,0-3.93-1,7.56,7.56,0,0,0-4.27,1.2,8,8,0,0,0-2.79,3.1,8.91,8.91,0,0,0-1,4.15v3.4A11.3,11.3,0,0,0,270,198a7.53,7.53,0,0,0,3,3.19,8.73,8.73,0,0,0,4.44,1.1,9,9,0,0,0,3-.48,6.33,6.33,0,0,0,2.35-1.43,6.17,6.17,0,0,0,1.52-2.35l5.49,1a10,10,0,0,1-2.36,4.25,11.33,11.33,0,0,1-4.25,2.81A15.78,15.78,0,0,1,277.33,207.1Z" fill="#fff"/><path d="M309.16,207.1a13.68,13.68,0,0,1-7.32-1.92A13,13,0,0,1,297,199.8a17.85,17.85,0,0,1-1.72-8.08,18,18,0,0,1,1.72-8.11,12.94,12.94,0,0,1,4.86-5.4,14.91,14.91,0,0,1,14.64,0,12.92,12.92,0,0,1,4.85,5.4,17.9,17.9,0,0,1,1.73,8.11,17.72,17.72,0,0,1-1.73,8.08,12.93,12.93,0,0,1-4.85,5.38A13.71,13.71,0,0,1,309.16,207.1Zm0-4.87a6.94,6.94,0,0,0,4.5-1.44,8.45,8.45,0,0,0,2.65-3.82,16.34,16.34,0,0,0,0-10.52,8.55,8.55,0,0,0-2.65-3.85,6.89,6.89,0,0,0-4.5-1.46,7,7,0,0,0-4.54,1.46,8.64,8.64,0,0,0-2.66,3.85A16.52,16.52,0,0,0,302,197a8.55,8.55,0,0,0,2.66,3.82A7,7,0,0,0,309.18,202.23Z" fill="#fff"/><path d="M335.33,188.79V206.5h-5.8V176.68h5.57v4.85h.37a8.48,8.48,0,0,1,3.23-3.81,10.07,10.07,0,0,1,5.56-1.43,10.76,10.76,0,0,1,5.34,1.27,8.64,8.64,0,0,1,3.56,3.78,13.68,13.68,0,0,1,1.26,6.19v19h-5.81V188.23a7.24,7.24,0,0,0-1.68-5.08,6,6,0,0,0-4.65-1.83,7.24,7.24,0,0,0-3.58.87,6.18,6.18,0,0,0-2.46,2.55A8.36,8.36,0,0,0,335.33,188.79Z" fill="#fff"/><path d="M100.1,234.58h-.66l3.68-10.19h.72l3.68,10.19h-.66l-3.36-9.39h0Zm.93-3.84h4.9v.58H101Z" fill="#fff"/><path d="M116.16,234.58V224.39h3.14a3.38,3.38,0,0,1,1.67.39,2.8,2.8,0,0,1,1.07,1.09,3.41,3.41,0,0,1,.37,1.58A3.34,3.34,0,0,1,122,229a2.74,2.74,0,0,1-1.07,1.09,3.27,3.27,0,0,1-1.66.4H116.6v-.57h2.69a2.72,2.72,0,0,0,1.35-.32,2.21,2.21,0,0,0,.85-.89,2.66,2.66,0,0,0,.3-1.28,2.73,2.73,0,0,0-.3-1.29,2.14,2.14,0,0,0-.86-.88,2.68,2.68,0,0,0-1.34-.32h-2.51v9.62Z" fill="#fff"/><path d="M128.75,234.74a2.88,2.88,0,0,1-1.68-.51,3.45,3.45,0,0,1-1.16-1.41,4.57,4.57,0,0,1-.43-2,4.63,4.63,0,0,1,.43-2,3.52,3.52,0,0,1,1.16-1.41,3,3,0,0,1,3.36,0,3.52,3.52,0,0,1,1.16,1.41,4.77,4.77,0,0,1,.43,2,4.71,4.71,0,0,1-.43,2,3.45,3.45,0,0,1-1.16,1.41A2.88,2.88,0,0,1,128.75,234.74Zm0-.56a2.28,2.28,0,0,0,1.4-.45,3,3,0,0,0,.93-1.23,4.32,4.32,0,0,0,.33-1.72,4.27,4.27,0,0,0-.33-1.71,3,3,0,0,0-.93-1.23,2.4,2.4,0,0,0-2.8,0,3,3,0,0,0-.93,1.23,4.27,4.27,0,0,0-.33,1.71,4.32,4.32,0,0,0,.33,1.72,3,3,0,0,0,.93,1.23A2.26,2.26,0,0,0,128.75,234.18Z" fill="#fff"/><path d="M135.51,234.58V224.39h.61v10.19Zm.53-3v-.87h.16l3.82-3.78h.8l-3.51,3.48-.06,0Zm4.15,3L137,230.5l.44-.4,3.57,4.48Z" fill="#fff"/><path d="M146.67,234.74a3.17,3.17,0,0,1-1.8-.51,3.35,3.35,0,0,1-1.18-1.41,4.69,4.69,0,0,1-.42-2,4.77,4.77,0,0,1,.42-2,3.45,3.45,0,0,1,1.16-1.41,2.81,2.81,0,0,1,1.68-.52,3,3,0,0,1,1.22.26,2.9,2.9,0,0,1,1,.74,3.28,3.28,0,0,1,.69,1.16,4.38,4.38,0,0,1,.26,1.53v.38h-6.06v-.55h5.45a3.24,3.24,0,0,0-.34-1.5,2.79,2.79,0,0,0-.92-1.06,2.4,2.4,0,0,0-2.67,0,3.06,3.06,0,0,0-.94,1.15,3.84,3.84,0,0,0-.36,1.61v.25a4.13,4.13,0,0,0,.34,1.72,2.85,2.85,0,0,0,1,1.2,2.58,2.58,0,0,0,1.5.44,2.36,2.36,0,0,0,1.81-.73,2.31,2.31,0,0,0,.42-.59l.56.23a3,3,0,0,1-.54.76,3,3,0,0,1-.93.64A3.14,3.14,0,0,1,146.67,234.74Zm-.47-8.9,1.34-2.2h.72l-1.5,2.2Z" fill="#fff"/><path d="M153.2,234.58v-7.64h.6v1.15h.06a1.82,1.82,0,0,1,.75-.92,2.44,2.44,0,0,1,1.3-.33,2.15,2.15,0,0,1,1.34.39,2.24,2.24,0,0,1,.73,1.08H158a2.13,2.13,0,0,1,.8-1.07,2.46,2.46,0,0,1,1.43-.4,2.11,2.11,0,0,1,1.7.69,2.91,2.91,0,0,1,.58,1.92v5.13H162v-5.13a2.28,2.28,0,0,0-.46-1.5,1.65,1.65,0,0,0-1.35-.55,1.82,1.82,0,0,0-1.45.59,2.24,2.24,0,0,0-.51,1.51v5.08h-.6v-5.17a2.24,2.24,0,0,0-.45-1.45,1.61,1.61,0,0,0-1.35-.56,1.92,1.92,0,0,0-1.05.28,1.86,1.86,0,0,0-.68.76,2.52,2.52,0,0,0-.24,1.12v5Z" fill="#fff"/><path d="M169.32,234.74a2.88,2.88,0,0,1-1.68-.51,3.38,3.38,0,0,1-1.16-1.41,4.57,4.57,0,0,1-.43-2,4.63,4.63,0,0,1,.43-2,3.44,3.44,0,0,1,1.16-1.41,3,3,0,0,1,3.36,0,3.52,3.52,0,0,1,1.16,1.41,4.77,4.77,0,0,1,.42,2,4.71,4.71,0,0,1-.42,2,3.45,3.45,0,0,1-1.16,1.41A2.88,2.88,0,0,1,169.32,234.74Zm0-.56a2.28,2.28,0,0,0,1.4-.45,3,3,0,0,0,.93-1.23,4.32,4.32,0,0,0,.33-1.72,4.27,4.27,0,0,0-.33-1.71,3,3,0,0,0-.93-1.23,2.4,2.4,0,0,0-2.8,0,3,3,0,0,0-.93,1.23,4.28,4.28,0,0,0-.34,1.71,4.16,4.16,0,0,0,.34,1.72,3,3,0,0,0,.93,1.23A2.26,2.26,0,0,0,169.32,234.18Z" fill="#fff"/><path d="M176.69,229.62v5h-.61v-7.64h.59v1.2h.06a2.15,2.15,0,0,1,.87-.95,2.72,2.72,0,0,1,1.4-.35,2.82,2.82,0,0,1,1.36.32,2.31,2.31,0,0,1,.92.94,3,3,0,0,1,.33,1.44v5H181v-5a2.14,2.14,0,0,0-.58-1.57,2.07,2.07,0,0,0-1.53-.59,2.23,2.23,0,0,0-1.13.28,1.91,1.91,0,0,0-.79.78A2.29,2.29,0,0,0,176.69,229.62Z" fill="#fff"/><path d="M192.78,234.58,190,224.39h.65l2.49,9.23h.06l2.44-9.23h.76l2.45,9.23h.06l2.49-9.23H202l-2.8,10.19h-.72L196,225.41H196l-2.47,9.17Z" fill="#fff"/><path d="M207.31,234.74a3.17,3.17,0,0,1-1.8-.51,3.28,3.28,0,0,1-1.18-1.41,4.69,4.69,0,0,1-.42-2,4.77,4.77,0,0,1,.42-2,3.38,3.38,0,0,1,1.16-1.41,2.81,2.81,0,0,1,1.68-.52,3,3,0,0,1,1.22.26,2.9,2.9,0,0,1,1,.74,3.28,3.28,0,0,1,.69,1.16,4.38,4.38,0,0,1,.26,1.53v.38h-6.06v-.55h5.45a3.37,3.37,0,0,0-.34-1.5,2.79,2.79,0,0,0-.92-1.06,2.4,2.4,0,0,0-2.67,0,3.06,3.06,0,0,0-.94,1.15,3.84,3.84,0,0,0-.36,1.61v.25a4.13,4.13,0,0,0,.34,1.72,2.85,2.85,0,0,0,1,1.2,2.58,2.58,0,0,0,1.5.44,2.36,2.36,0,0,0,1.81-.73,2.59,2.59,0,0,0,.42-.59l.56.23a3,3,0,0,1-.54.76,3,3,0,0,1-.93.64A3.14,3.14,0,0,1,207.31,234.74Z" fill="#fff"/><path d="M215.87,234.75a2.69,2.69,0,0,1-1.21-.27,2.05,2.05,0,0,1-.88-.77,2.22,2.22,0,0,1-.34-1.23,2.08,2.08,0,0,1,.17-.85,1.65,1.65,0,0,1,.53-.62,2.9,2.9,0,0,1,.9-.44,7.9,7.9,0,0,1,1.32-.26l1-.14a2.39,2.39,0,0,0,.72-.21.46.46,0,0,0,.26-.44v-.32a1.73,1.73,0,0,0-.52-1.33,2.06,2.06,0,0,0-1.46-.49,2.49,2.49,0,0,0-1.38.36,2,2,0,0,0-.78.93l-.58-.22a2.38,2.38,0,0,1,.64-.91,2.79,2.79,0,0,1,.95-.54,3.58,3.58,0,0,1,1.14-.18,3.19,3.19,0,0,1,1,.15,2.52,2.52,0,0,1,.83.43,2.29,2.29,0,0,1,.58.75,2.62,2.62,0,0,1,.21,1.09v5.34h-.61V233.2h0a2.63,2.63,0,0,1-.55.78,2.43,2.43,0,0,1-.83.56A2.72,2.72,0,0,1,215.87,234.75Zm.06-.57a2.27,2.27,0,0,0,1.27-.35,2.38,2.38,0,0,0,.87-1,3,3,0,0,0,.31-1.39v-1.12a1,1,0,0,1-.33.17,3.7,3.7,0,0,1-.49.14l-.56.1-.58.07a5.61,5.61,0,0,0-1.36.31,1.71,1.71,0,0,0-.77.54,1.34,1.34,0,0,0-.24.81,1.52,1.52,0,0,0,.54,1.23A2,2,0,0,0,215.93,234.18Z" fill="#fff"/><path d="M225.64,226.94v.54H222.3v-.54Zm-2.21-1.84h.6v7.68a1.45,1.45,0,0,0,.18.76,1.19,1.19,0,0,0,.48.44,1.53,1.53,0,0,0,.64.14,1.14,1.14,0,0,0,.28,0,.86.86,0,0,0,.23-.06l.15.55a2.13,2.13,0,0,1-.3.09,2.35,2.35,0,0,1-.4,0,1.94,1.94,0,0,1-.91-.22,1.78,1.78,0,0,1-.69-.62,1.82,1.82,0,0,1-.26-1Z" fill="#fff"/><path d="M230.06,229.62v5h-.61V224.39h.61v3.75h.06a2.12,2.12,0,0,1,.86-.95,2.64,2.64,0,0,1,1.41-.35,2.71,2.71,0,0,1,1.36.32,2.29,2.29,0,0,1,.92.93,3,3,0,0,1,.33,1.45v5h-.6v-5a2.14,2.14,0,0,0-.58-1.57,2.08,2.08,0,0,0-1.54-.59,2.24,2.24,0,0,0-1.14.28,1.91,1.91,0,0,0-.79.78A2.29,2.29,0,0,0,230.06,229.62Z" fill="#fff"/><path d="M241.91,234.74a3.22,3.22,0,0,1-1.81-.51,3.35,3.35,0,0,1-1.18-1.41,4.69,4.69,0,0,1-.42-2,4.77,4.77,0,0,1,.42-2,3.45,3.45,0,0,1,1.16-1.41,2.81,2.81,0,0,1,1.68-.52,3,3,0,0,1,1.22.26,3,3,0,0,1,1,.74,3.61,3.61,0,0,1,.69,1.16,4.39,4.39,0,0,1,.25,1.53v.38h-6.06v-.55h5.45a3.24,3.24,0,0,0-.34-1.5,2.71,2.71,0,0,0-.92-1.06,2.29,2.29,0,0,0-1.31-.39,2.26,2.26,0,0,0-1.35.42,3,3,0,0,0-.94,1.15,3.7,3.7,0,0,0-.37,1.61v.25a4.29,4.29,0,0,0,.34,1.72,2.93,2.93,0,0,0,1,1.2,2.59,2.59,0,0,0,1.51.44A2.49,2.49,0,0,0,243,234a2.39,2.39,0,0,0,.73-.52,2.66,2.66,0,0,0,.43-.59l.55.23a3,3,0,0,1-.54.76,2.79,2.79,0,0,1-.93.64A3.13,3.13,0,0,1,241.91,234.74Z" fill="#fff"/><path d="M248.44,234.58v-7.64H249v1.19h.05a2,2,0,0,1,.85-.94,2.52,2.52,0,0,1,1.35-.36h.3v.61l-.14,0h-.2a2.33,2.33,0,0,0-1.13.27,2,2,0,0,0-.78.76,2.09,2.09,0,0,0-.29,1.09v5Z" fill="#fff"/><path d="M259.78,234.58h-.65l3.68-10.19h.71l3.68,10.19h-.65l-3.36-9.39h-.05Zm.94-3.84h4.89v.58h-4.89Z" fill="#fff"/><path d="M270.29,237.45V226.94h.59v1.7H271a3.08,3.08,0,0,1,.51-.9,2.51,2.51,0,0,1,.81-.67,2.45,2.45,0,0,1,1.14-.25,2.65,2.65,0,0,1,1.62.51,3.23,3.23,0,0,1,1.06,1.4,5.1,5.1,0,0,1,.38,2.05,5.28,5.28,0,0,1-.38,2.05,3.3,3.3,0,0,1-1.07,1.4,2.59,2.59,0,0,1-1.6.51,2.45,2.45,0,0,1-1.14-.25,2.3,2.3,0,0,1-.82-.66,3.19,3.19,0,0,1-.51-.92h-.05v4.54Zm.6-6.68a4.8,4.8,0,0,0,.29,1.75,2.81,2.81,0,0,0,.86,1.21,2,2,0,0,0,1.33.45,2.07,2.07,0,0,0,1.34-.45,2.9,2.9,0,0,0,.86-1.22,4.81,4.81,0,0,0,.29-1.74,4.67,4.67,0,0,0-.29-1.72,2.82,2.82,0,0,0-.85-1.22,2.12,2.12,0,0,0-1.35-.44,2.06,2.06,0,0,0-1.34.44,2.76,2.76,0,0,0-.85,1.2A4.74,4.74,0,0,0,270.89,230.77Z" fill="#fff"/><path d="M280,237.45V226.94h.59v1.7h.08a3.05,3.05,0,0,1,.5-.9,2.51,2.51,0,0,1,.81-.67,2.47,2.47,0,0,1,1.15-.25,2.64,2.64,0,0,1,1.61.51,3.23,3.23,0,0,1,1.06,1.4,5.72,5.72,0,0,1,0,4.1,3.37,3.37,0,0,1-1.06,1.4,2.61,2.61,0,0,1-1.6.51,2.47,2.47,0,0,1-1.15-.25,2.39,2.39,0,0,1-.82-.66,2.94,2.94,0,0,1-.5-.92h-.06v4.54Zm.6-6.68a4.79,4.79,0,0,0,.3,1.75,2.71,2.71,0,0,0,.85,1.21,2.21,2.21,0,0,0,2.67,0,2.82,2.82,0,0,0,.86-1.22,4.81,4.81,0,0,0,.3-1.74,4.67,4.67,0,0,0-.3-1.72,2.74,2.74,0,0,0-.85-1.22,2.12,2.12,0,0,0-1.35-.44,2.06,2.06,0,0,0-1.34.44,2.76,2.76,0,0,0-.85,1.2A5,5,0,0,0,280.57,230.77Z" fill="#fff"/><path d="M45.6,187.68c0-.12,0-.24,0-.36h0C45.59,187.44,45.6,187.56,45.6,187.68Z" fill="#fff"/><path d="M77.58,167.74l-3.77.76,3.46-4.13-.39-.1-.38-.1-3.86,4.6a.38.38,0,0,0,.38.61l3.71-.74-7.09,7.76,2.35-.59-6.59,7.44.76-1.82,1.58-3.78,0-.07,0-.1v0l-1.3.44h0l-.91.31,3.51-6.72A.39.39,0,0,0,69,171a.44.44,0,0,0-.3,0l-1.27.29-2.55.59,2.81-7,.23-.56.32-.79h-.09l-.31,0-.41,0-.38.94-.14.33L64,172.14a.39.39,0,0,0,.45.51l3.73-.86-3.56,6.81a.16.16,0,0,0,0,.09h0a.38.38,0,0,0,.5.44l1.49-.5L65,182.32l-.32.78h0L64,184.85a.38.38,0,0,0,.65.39l8.64-9.75a.38.38,0,0,0-.38-.63l-1.08.27L78,168.37A.38.38,0,0,0,77.58,167.74Z" fill="#fff"/><polygon points="67.7 177.66 67.75 177.65 67.77 177.58 67.7 177.66" fill="#fff"/><path d="M93.83,187.32a2.17,2.17,0,0,1,0,.36c0-.12,0-.24,0-.36Z" fill="#fff"/><path d="M78.83,164.34l-.3-.12-.3-.11c-.57-.22-1.14-.41-1.73-.59l-.66-.18-.71-.17a23.64,23.64,0,0,0-5.42-.62,24.15,24.15,0,0,0-24.13,24.13c0,.21,0,.42,0,.64s0,.24,0,.36a24.13,24.13,0,0,0,48.21,0c0-.12,0-.24,0-.36v-.64A24.18,24.18,0,0,0,78.83,164.34Zm12.75,23.15c-.3,1.91-5.36,4.33-13.84,5.3a7.08,7.08,0,0,1,.08,1.13,7.78,7.78,0,0,1-.07,1.09c5.5-.62,10.46-1.9,13.37-3.78a21.89,21.89,0,0,1-42.83,0c2.88,1.86,7.77,3.13,13.2,3.76a7.49,7.49,0,0,1-.07-1.07,8.77,8.77,0,0,1,.08-1.15c-8.37-1-13.37-3.38-13.67-5.28,0-.27,0-.54,0-.81a21.93,21.93,0,0,1,21.29-21.89h.67a21.54,21.54,0,0,1,2.42.14h0a20.35,20.35,0,0,1,3.68.75l.65.2.32.1.31.11A21.94,21.94,0,0,1,91.6,186.68C91.6,187,91.59,187.22,91.58,187.49Z" fill="#fff"/><path d="M74,193.11a4.44,4.44,0,0,0-8.74,0,4.38,4.38,0,0,0-.08.82,4.19,4.19,0,0,0,.24,1.42,4.44,4.44,0,0,0,8.42,0,4.52,4.52,0,0,0,.24-1.43A4.28,4.28,0,0,0,74,193.11Zm-1.21,2.29a3.49,3.49,0,0,1-6.32,0,3.44,3.44,0,0,1-.33-1.47,3.31,3.31,0,0,1,.09-.77,3.48,3.48,0,0,1,6.8,0,3.16,3.16,0,0,1,.09.76A3.49,3.49,0,0,1,72.78,195.4Z" fill="#fff"/><path d="M77.74,192.79a8.2,8.2,0,0,0-16.24,0,8.77,8.77,0,0,0-.08,1.15,7.49,7.49,0,0,0,.07,1.07,8.2,8.2,0,0,0,16.26,0,7.78,7.78,0,0,0,.07-1.09A7.08,7.08,0,0,0,77.74,192.79Zm-2.3,2.45a6,6,0,0,1-11.64,0,5.57,5.57,0,0,1-.15-1.3,5.64,5.64,0,0,1,.08-.93,6,6,0,0,1,11.78,0,5.62,5.62,0,0,1,.08.92A5.68,5.68,0,0,1,75.44,195.24Z" fill="#fff"/></g></svg>