<svg id="eb9b5415-6126-4d4a-965f-f54476c8e1f0" data-name="Horizontal" xmlns="http://www.w3.org/2000/svg" viewBox="0 0 1085 304"><g id="b5b9c023-b040-4a12-b975-316062866fb9" data-name="Expanded"><path d="M340.54,80.88a17.86,17.86,0,0,0-8-13.39q-7-4.77-17.75-4.77a33.38,33.38,0,0,0-13.24,2.4,20.39,20.39,0,0,0-8.66,6.56,15.47,15.47,0,0,0-3.07,9.45,13.68,13.68,0,0,0,2.1,7.65,17.74,17.74,0,0,0,5.52,5.38,38.59,38.59,0,0,0,7.39,3.59,79,79,0,0,0,7.59,2.34l12.16,3.15a94.32,94.32,0,0,1,12.21,4,49,49,0,0,1,11.6,6.57A31.68,31.68,0,0,1,357,123.84a29.41,29.41,0,0,1,3.31,14.4A33.25,33.25,0,0,1,354.91,157,36.75,36.75,0,0,1,339.17,170q-10.31,4.74-24.88,4.74-14,0-24.19-4.43a37.2,37.2,0,0,1-16-12.61,36.34,36.34,0,0,1-6.38-19.42h18.84a18.94,18.94,0,0,0,4.4,11.21,23.1,23.1,0,0,0,9.91,6.63,39.19,39.19,0,0,0,13.28,2.15,37.54,37.54,0,0,0,14.18-2.52,23.39,23.39,0,0,0,9.82-7.05,16.55,16.55,0,0,0,3.58-10.6,13.11,13.11,0,0,0-3.13-9.05,23.89,23.89,0,0,0-8.44-5.84,86.2,86.2,0,0,0-12-4.07l-14.71-4q-14.94-4.07-23.67-12t-8.72-20.9a31,31,0,0,1,5.84-18.77A38.51,38.51,0,0,1,292.72,51a54.32,54.32,0,0,1,22.48-4.47,53.11,53.11,0,0,1,22.33,4.44,37.8,37.8,0,0,1,15.28,12.18,30.9,30.9,0,0,1,5.83,17.77Z" fill="#ffd833"/><path d="M424.87,79.3V93.89h-51V79.3ZM387.56,56.94h18.17v88.29q0,5.29,1.58,7.93a8.09,8.09,0,0,0,4.1,3.59,15.8,15.8,0,0,0,5.5.94,20.53,20.53,0,0,0,3.83-.31l2.55-.48,3.28,15a32.63,32.63,0,0,1-4.49,1.24,37,37,0,0,1-7.29.7,32,32,0,0,1-13.37-2.55,22.92,22.92,0,0,1-10-8.27q-3.83-5.58-3.83-14Z" fill="#ffd833"/><path d="M483.27,174.52q-13.12,0-22.91-6a40.54,40.54,0,0,1-15.19-16.83q-5.42-10.81-5.41-25.27t5.41-25.4a40.48,40.48,0,0,1,15.19-16.9q9.78-6,22.91-6t22.9,6A40.48,40.48,0,0,1,521.36,101q5.42,10.88,5.41,25.4t-5.41,25.27a40.54,40.54,0,0,1-15.19,16.83Q496.39,174.52,483.27,174.52Zm.06-15.25q8.51,0,14.09-4.5a26.62,26.62,0,0,0,8.3-12,51.46,51.46,0,0,0,0-32.9,27,27,0,0,0-8.3-12.06q-5.58-4.56-14.09-4.56t-14.19,4.56a26.91,26.91,0,0,0-8.33,12.06,51.46,51.46,0,0,0,0,32.9,26.52,26.52,0,0,0,8.33,12Q474.75,159.27,483.33,159.27Z" fill="#ffd833"/><path d="M547,172.64V79.3h17.56V94.13h1a22.65,22.65,0,0,1,9-11.88,25.74,25.74,0,0,1,14.67-4.34c1.14,0,2.48,0,4,.12s2.79.18,3.68.3V95.71a37.9,37.9,0,0,0-3.89-.7,40.4,40.4,0,0,0-5.59-.39A23.76,23.76,0,0,0,576,97.32a20.29,20.29,0,0,0-10.85,18.32v57Z" fill="#ffd833"/><path d="M612.75,172.64V79.3h17.44V94.5h1.15a24.35,24.35,0,0,1,9.54-12.07,28.32,28.32,0,0,1,15.86-4.34q9.36,0,15.71,4.37a25.71,25.71,0,0,1,9.38,12h1a26.32,26.32,0,0,1,10.63-11.94,32.59,32.59,0,0,1,17.38-4.47q12.69,0,20.75,8t8,24v62.59H721.45V111.75q0-9.48-5.16-13.73A18.79,18.79,0,0,0,704,93.77q-8.87,0-13.79,5.43t-4.92,14v59.49H667.13v-62q0-7.6-4.74-12.22t-12.33-4.61a17.64,17.64,0,0,0-9.51,2.7,19.92,19.92,0,0,0-7,7.5,22.71,22.71,0,0,0-2.64,11.12v57.55Z" fill="#ffd833"/><path d="M804.15,174.52q-13.8,0-23.73-5.93a39.36,39.36,0,0,1-15.31-16.71q-5.39-10.77-5.38-25.3,0-14.34,5.38-25.28a41.2,41.2,0,0,1,15.07-17.07q9.69-6.14,22.69-6.14a45.74,45.74,0,0,1,15.31,2.61,37.1,37.1,0,0,1,13.31,8.2,38.6,38.6,0,0,1,9.3,14.5q3.4,8.89,3.4,21.6v6.44H770V117.83h56.39a27,27,0,0,0-2.92-12.73,22.16,22.16,0,0,0-8.17-8.78A23.08,23.08,0,0,0,803,93.1a23.69,23.69,0,0,0-13.33,3.73,25.27,25.27,0,0,0-8.75,9.73,28,28,0,0,0-3.07,13v10.63q0,9.36,3.31,15.92a23.36,23.36,0,0,0,9.27,10,27.33,27.33,0,0,0,13.91,3.43,28.21,28.21,0,0,0,9.42-1.49,20.09,20.09,0,0,0,7.35-4.46,19.48,19.48,0,0,0,4.74-7.36l17.2,3.1a31,31,0,0,1-7.39,13.28,35.77,35.77,0,0,1-13.3,8.81A49.57,49.57,0,0,1,804.15,174.52Z" fill="#33363a"/><path d="M903.74,174.52q-13.12,0-22.91-6a40.54,40.54,0,0,1-15.19-16.83q-5.42-10.81-5.41-25.27t5.41-25.4a40.48,40.48,0,0,1,15.19-16.9q9.78-6,22.91-6t22.9,6A40.42,40.42,0,0,1,941.83,101q5.42,10.88,5.41,25.4t-5.41,25.27a40.47,40.47,0,0,1-15.19,16.83Q916.86,174.52,903.74,174.52Zm.06-15.25q8.51,0,14.09-4.5a26.55,26.55,0,0,0,8.3-12,51.46,51.46,0,0,0,0-32.9,26.94,26.94,0,0,0-8.3-12.06q-5.58-4.56-14.09-4.56t-14.19,4.56a26.82,26.82,0,0,0-8.32,12.06,51.28,51.28,0,0,0,0,32.9,26.43,26.43,0,0,0,8.32,12Q895.24,159.27,903.8,159.27Z" fill="#33363a"/><path d="M985.64,117.22v55.42H967.48V79.3h17.43V94.5h1.16a26.49,26.49,0,0,1,10.12-11.91q6.88-4.5,17.4-4.5a33.91,33.91,0,0,1,16.71,4,27,27,0,0,1,11.12,11.82q4,7.83,3.95,19.38v59.37H1027.2V115.46q0-10.15-5.28-15.89t-14.52-5.74a22.59,22.59,0,0,0-11.21,2.73,19.39,19.39,0,0,0-7.72,8A26.38,26.38,0,0,0,985.64,117.22Z" fill="#33363a"/><path d="M250.43,260.51h-3.06L259,228.6h3.12l11.6,31.91h-3.05l-10-28.12h-.22Zm2.19-12.23h15.83v2.62H252.62Z" fill="#33363a"/><path d="M300.29,260.51V228.6h10.29a11.39,11.39,0,0,1,5.68,1.3,8.68,8.68,0,0,1,3.45,3.53,11.44,11.44,0,0,1,0,10,8.57,8.57,0,0,1-3.42,3.54,11.26,11.26,0,0,1-5.66,1.3h-8.1v-2.62h8a8.29,8.29,0,0,0,4.16-.94,6,6,0,0,0,2.47-2.58,8.85,8.85,0,0,0,0-7.44,5.93,5.93,0,0,0-2.48-2.58,8.46,8.46,0,0,0-4.19-.93H303.2v29.29Z" fill="#33363a"/><path d="M340.58,261a9.74,9.74,0,0,1-5.47-1.57,10.61,10.61,0,0,1-3.72-4.36,14.69,14.69,0,0,1-1.34-6.43,14.84,14.84,0,0,1,1.34-6.47,10.55,10.55,0,0,1,3.72-4.36,10.29,10.29,0,0,1,10.94,0,10.69,10.69,0,0,1,3.72,4.36,16.11,16.11,0,0,1,0,12.89,10.69,10.69,0,0,1-3.72,4.36A9.75,9.75,0,0,1,340.58,261Zm0-2.54a6.73,6.73,0,0,0,4.23-1.34,8.33,8.33,0,0,0,2.62-3.57,13,13,0,0,0,.9-4.91,13.13,13.13,0,0,0-.9-4.92,8.55,8.55,0,0,0-2.62-3.6,7.27,7.27,0,0,0-8.44,0,8.4,8.4,0,0,0-2.63,3.6,13.13,13.13,0,0,0-.9,4.92,13,13,0,0,0,.9,4.91,8.25,8.25,0,0,0,2.62,3.57A6.72,6.72,0,0,0,340.58,258.47Z" fill="#33363a"/><path d="M361.6,260.51V228.6h2.77v31.91Zm2.52-9,0-3.63h.62l11.22-11.26h3.5l-11.07,11.09-.25.05Zm12.39,9-9.73-12.29,2-1.92,11.28,14.21Z" fill="#33363a"/><path d="M397.7,261a10.45,10.45,0,0,1-5.79-1.57,10.33,10.33,0,0,1-3.78-4.34,14.66,14.66,0,0,1-1.33-6.41,14.81,14.81,0,0,1,1.33-6.43,10.71,10.71,0,0,1,3.69-4.41,9.58,9.58,0,0,1,5.46-1.6A10.29,10.29,0,0,1,401,237a9.37,9.37,0,0,1,3.25,2.17,10.36,10.36,0,0,1,2.28,3.66,14.63,14.63,0,0,1,.84,5.21v1.37h-18.7v-2.45h15.86a9.11,9.11,0,0,0-.92-4.15,7.44,7.44,0,0,0-2.57-2.92,7.25,7.25,0,0,0-7.8.14,8.22,8.22,0,0,0-2.7,3.21,9.93,9.93,0,0,0-1,4.36V249a11.71,11.71,0,0,0,1,5,7.63,7.63,0,0,0,2.81,3.29,8.59,8.59,0,0,0,7.3.64,6.44,6.44,0,0,0,3.5-3.4l2.63.86a7.82,7.82,0,0,1-1.79,2.79,9.18,9.18,0,0,1-3.08,2.05A11,11,0,0,1,397.7,261Zm-1.85-27.75,4-7.07h3.29l-4.79,7.07Z" fill="#33363a"/><path d="M417.89,260.51V236.58h2.69v3.68h.25a5.92,5.92,0,0,1,2.39-2.92,7.28,7.28,0,0,1,4-1.07,6.81,6.81,0,0,1,4.08,1.16,7,7,0,0,1,2.39,3.19h.2a6.72,6.72,0,0,1,2.64-3.18,8.08,8.08,0,0,1,4.45-1.17,6.85,6.85,0,0,1,5.27,2.09,8.77,8.77,0,0,1,1.93,6.12v16h-2.78v-16a5.67,5.67,0,0,0-1.45-4.25,5.18,5.18,0,0,0-3.81-1.42,5.31,5.31,0,0,0-4.22,1.68,6.22,6.22,0,0,0-1.48,4.27v15.75h-2.84V244.23a5.61,5.61,0,0,0-1.36-3.93,4.89,4.89,0,0,0-3.81-1.49,5.56,5.56,0,0,0-3,.81,5.63,5.63,0,0,0-2.07,2.25,6.94,6.94,0,0,0-.76,3.31v15.33Z" fill="#33363a"/><path d="M469.22,261a9.78,9.78,0,0,1-5.48-1.57,10.59,10.59,0,0,1-3.71-4.36,14.55,14.55,0,0,1-1.34-6.43,14.7,14.7,0,0,1,1.34-6.47,10.53,10.53,0,0,1,3.71-4.36,10.3,10.3,0,0,1,10.95,0,10.67,10.67,0,0,1,3.71,4.36,16.11,16.11,0,0,1,0,12.89,10.54,10.54,0,0,1-3.72,4.36A9.74,9.74,0,0,1,469.22,261Zm0-2.54a6.7,6.7,0,0,0,4.22-1.34,8.35,8.35,0,0,0,2.63-3.57,13.16,13.16,0,0,0,.89-4.91,13.33,13.33,0,0,0-.89-4.92,8.57,8.57,0,0,0-2.63-3.6,7.27,7.27,0,0,0-8.44,0,8.57,8.57,0,0,0-2.63,3.6,13.13,13.13,0,0,0-.9,4.92,13,13,0,0,0,.9,4.91,8.27,8.27,0,0,0,2.63,3.57A6.7,6.7,0,0,0,469.22,258.47Z" fill="#33363a"/><path d="M493,245.55v15h-2.77V236.58h2.69v3.75h.25a6.79,6.79,0,0,1,2.63-3,8.21,8.21,0,0,1,4.42-1.11,8.66,8.66,0,0,1,4.24,1,7,7,0,0,1,2.85,3,10.18,10.18,0,0,1,1,4.78v15.5h-2.77V245.18a6.48,6.48,0,0,0-1.64-4.66,5.84,5.84,0,0,0-4.41-1.71,6.83,6.83,0,0,0-3.35.81,5.88,5.88,0,0,0-2.31,2.33A7.21,7.21,0,0,0,493,245.55Z" fill="#33363a"/><path d="M542.89,260.51l-8.74-31.91h3L544.34,256h.25l7.23-27.44h3.37L562.41,256h.25l7.23-27.44h3l-8.74,31.91H561l-7.4-27.06h-.2L546,260.51Z" fill="#33363a"/><path d="M589.39,261a10.45,10.45,0,0,1-5.79-1.57,10.33,10.33,0,0,1-3.78-4.34,14.66,14.66,0,0,1-1.33-6.41,14.81,14.81,0,0,1,1.33-6.43,10.71,10.71,0,0,1,3.69-4.41,9.53,9.53,0,0,1,5.46-1.6,10.29,10.29,0,0,1,3.76.71,9.46,9.46,0,0,1,3.25,2.17,10.36,10.36,0,0,1,2.28,3.66,14.63,14.63,0,0,1,.84,5.21v1.37H580.4v-2.45h15.86a9.24,9.24,0,0,0-.92-4.15,7.44,7.44,0,0,0-2.57-2.92,7.25,7.25,0,0,0-7.8.14,8.25,8.25,0,0,0-2.71,3.21,10.07,10.07,0,0,0-1,4.36V249a11.71,11.71,0,0,0,1,5,7.65,7.65,0,0,0,2.82,3.29,7.79,7.79,0,0,0,4.31,1.17,7.9,7.9,0,0,0,3-.53,6.32,6.32,0,0,0,2.16-1.43,6.07,6.07,0,0,0,1.33-2l2.64.86a7.82,7.82,0,0,1-1.79,2.79,9.18,9.18,0,0,1-3.08,2.05A11,11,0,0,1,589.39,261Z" fill="#33363a"/><path d="M616.26,261.06a9.25,9.25,0,0,1-4-.85,7,7,0,0,1-2.85-2.46,7.06,7.06,0,0,1-1.06-3.92,6.18,6.18,0,0,1,.67-3,5.51,5.51,0,0,1,1.9-2,10.52,10.52,0,0,1,2.92-1.23,27.87,27.87,0,0,1,3.71-.7l3.4-.44a6.16,6.16,0,0,0,2.13-.59,1.4,1.4,0,0,0,.73-1.31V244a5.11,5.11,0,0,0-1.46-3.85,5.72,5.72,0,0,0-4.18-1.41,7.28,7.28,0,0,0-4.22,1.13,6.34,6.34,0,0,0-2.28,2.68l-2.63-.95a7.91,7.91,0,0,1,2.24-3.14,9.2,9.2,0,0,1,3.21-1.7,13.06,13.06,0,0,1,3.6-.52,12.17,12.17,0,0,1,2.86.36,8.31,8.31,0,0,1,2.77,1.24,6.47,6.47,0,0,1,2.07,2.44,8.77,8.77,0,0,1,.79,4v16.25h-2.77v-3.79h-.17a7.46,7.46,0,0,1-1.48,2.06,7.79,7.79,0,0,1-2.46,1.64A8.86,8.86,0,0,1,616.26,261.06Zm.38-2.54a7.3,7.3,0,0,0,3.83-1,6.88,6.88,0,0,0,2.5-2.61,7.44,7.44,0,0,0,.88-3.6v-3.45a2.91,2.91,0,0,1-1,.53,15.51,15.51,0,0,1-1.66.41c-.63.12-1.26.22-1.88.3l-1.68.22a15.87,15.87,0,0,0-3.46.78,5,5,0,0,0-2.2,1.46,3.59,3.59,0,0,0-.76,2.37,4,4,0,0,0,1.56,3.37A6.2,6.2,0,0,0,616.64,258.52Z" fill="#33363a"/><path d="M647.8,236.58V239H636.38v-2.41ZM640,230.85h2.79v23.41a4.47,4.47,0,0,0,.52,2.35,2.87,2.87,0,0,0,1.34,1.2,4.49,4.49,0,0,0,1.76.35,6.09,6.09,0,0,0,.93-.07l.69-.15.59,2.51a7.84,7.84,0,0,1-1,.29,7.37,7.37,0,0,1-1.46.13,6.72,6.72,0,0,1-2.94-.67,5.76,5.76,0,0,1-2.31-2,5.67,5.67,0,0,1-.91-3.29Z" fill="#33363a"/><path d="M661.76,245.55v15H659V228.6h2.78v11.73H662a6.65,6.65,0,0,1,2.61-3,8.26,8.26,0,0,1,4.48-1.11,8.71,8.71,0,0,1,4.26,1,6.85,6.85,0,0,1,2.87,2.94,10.14,10.14,0,0,1,1,4.8v15.5h-2.79V245.18a6.49,6.49,0,0,0-1.64-4.67,5.91,5.91,0,0,0-4.44-1.7,7.07,7.07,0,0,0-3.41.81,5.94,5.94,0,0,0-2.36,2.33A7.21,7.21,0,0,0,661.76,245.55Z" fill="#33363a"/><path d="M698.64,261a10.45,10.45,0,0,1-5.79-1.57,10.33,10.33,0,0,1-3.78-4.34,14.66,14.66,0,0,1-1.33-6.41,14.81,14.81,0,0,1,1.33-6.43,10.71,10.71,0,0,1,3.69-4.41,9.58,9.58,0,0,1,5.46-1.6A10.29,10.29,0,0,1,702,237a9.37,9.37,0,0,1,3.25,2.17,10.36,10.36,0,0,1,2.28,3.66,14.63,14.63,0,0,1,.84,5.21v1.37h-18.7v-2.45h15.87a9.11,9.11,0,0,0-.93-4.15,7.44,7.44,0,0,0-2.57-2.92,7.25,7.25,0,0,0-7.8.14,8.31,8.31,0,0,0-2.7,3.21,9.93,9.93,0,0,0-1,4.36V249a11.71,11.71,0,0,0,1,5,7.63,7.63,0,0,0,2.81,3.29,8.59,8.59,0,0,0,7.3.64,6.44,6.44,0,0,0,3.5-3.4l2.63.86a7.79,7.79,0,0,1-1.78,2.79,9.32,9.32,0,0,1-3.09,2.05A11,11,0,0,1,698.64,261Z" fill="#33363a"/><path d="M718.83,260.51V236.58h2.69v3.68h.21a6,6,0,0,1,2.5-2.92,7.42,7.42,0,0,1,4-1.12l.76,0,.71,0v2.82l-.66-.1a8,8,0,0,0-1-.06,6.94,6.94,0,0,0-3.33.79,5.87,5.87,0,0,0-3.14,5.33v15.46Z" fill="#33363a"/><path d="M756.21,260.51h-3.05l11.6-31.91h3.12l11.61,31.91h-3.06l-10-28.12h-.22Zm2.2-12.23h15.82v2.62H758.41Z" fill="#33363a"/><path d="M788.76,269.48v-32.9h2.7v4.56h.33a11.73,11.73,0,0,1,1.37-2.2,7.21,7.21,0,0,1,2.31-1.91,7.61,7.61,0,0,1,3.64-.78,8.85,8.85,0,0,1,5.18,1.55,10.29,10.29,0,0,1,3.46,4.33,17.58,17.58,0,0,1,0,13,10.29,10.29,0,0,1-3.46,4.35,8.74,8.74,0,0,1-5.15,1.56,7.6,7.6,0,0,1-3.62-.78,7.27,7.27,0,0,1-2.35-1.92,10.63,10.63,0,0,1-1.38-2.24h-.25v13.41Zm2.75-20.92a14.08,14.08,0,0,0,.86,5.13,8,8,0,0,0,2.49,3.51,6.79,6.79,0,0,0,8-.05,8.16,8.16,0,0,0,2.51-3.56,13.79,13.79,0,0,0,.86-5,13.93,13.93,0,0,0-.84-5,8,8,0,0,0-2.51-3.51,6.94,6.94,0,0,0-8-.05,7.71,7.71,0,0,0-2.48,3.46A14,14,0,0,0,791.51,248.56Z" fill="#33363a"/><path d="M819.47,269.48v-32.9h2.69v4.56h.33a11.73,11.73,0,0,1,1.37-2.2,7.21,7.21,0,0,1,2.31-1.91,7.61,7.61,0,0,1,3.64-.78A8.83,8.83,0,0,1,835,237.8a10.21,10.21,0,0,1,3.46,4.33,17.58,17.58,0,0,1,0,13,10.21,10.21,0,0,1-3.46,4.35,8.72,8.72,0,0,1-5.15,1.56,7.6,7.6,0,0,1-3.62-.78,7.27,7.27,0,0,1-2.35-1.92,10.63,10.63,0,0,1-1.38-2.24h-.25v13.41Zm2.74-20.92a14.29,14.29,0,0,0,.86,5.13,8,8,0,0,0,2.5,3.51,6.78,6.78,0,0,0,8-.05,8.08,8.08,0,0,0,2.51-3.56,13.79,13.79,0,0,0,.87-5,13.93,13.93,0,0,0-.85-5,8.08,8.08,0,0,0-2.5-3.51,6.32,6.32,0,0,0-4.05-1.3,6.39,6.39,0,0,0-4,1.25,7.71,7.71,0,0,0-2.48,3.46A14,14,0,0,0,822.21,248.56Z" fill="#33363a"/><path d="M79,113.75a8.77,8.77,0,0,1-.07-1.15h0C79,113,79,113.37,79,113.75Z" fill="#33363a"/><path d="M157.56,76.46l7.25-1.81-27.54,31.09L141,96.81l5.53-13.22L139.32,86,151.7,62.38l-14.22,3.27,10-24.8,1.1-2.71,1-.08.27,0a83.17,83.17,0,0,1,9.19-.15h0a81.35,81.35,0,0,1,14.12,1.72c.84.18,1.68.36,2.51.56l1.21.31-12.55,15,15.19-3Z" fill="#ffd833"/><path d="M148.51,81.81,151,81,141,99.88h0l-.71,1.34-.25-2h0L139.7,97l4.83-11.53L139.89,87a1.22,1.22,0,0,1-1.5-.62l-.09-.76v0a1,1,0,0,1,.11-.28L149.56,64,137.88,66.7a1.19,1.19,0,0,1-1.4-1.6l9.2-22.86,1.22,0h1.22l12.71.14L147.3,62.24l4.9-.75L162,60,144.49,83.1h0Z" fill="#ffbf31"/><path d="M179.07,51.35l-11.82,2.36,10.83-12.92-1.2-.31-1.21-.31L163.61,54.55a1.19,1.19,0,0,0,1.18,1.93l11.6-2.31L154.22,78.44l7.35-1.83L141,99.88l2.38-5.71,4.95-11.81.09-.24.14-.31,0-.08-4,1.37h0l-2.85,1,11-21a1.18,1.18,0,0,0-.42-1.55,1.21,1.21,0,0,0-.94-.16l-4,.91-8,1.83,8.79-21.8.71-1.77,1-2.46-.27,0-1,.08-1.28.11-1.19,3-.42,1-9.2,22.86a1.19,1.19,0,0,0,1.4,1.6L149.56,64,138.41,85.34a1,1,0,0,0-.11.28v0a1.16,1.16,0,0,0,.09.76,1.22,1.22,0,0,0,1.5.62l4.64-1.57L139.7,97l-1,2.44h0l-2.28,5.44a1.21,1.21,0,0,0,2,1.23l27-30.52a1.2,1.2,0,0,0-1.21-2l-3.38.85,19.31-21.16A1.19,1.19,0,0,0,179.07,51.35Z" fill="#33363a"/><polygon points="148.13 82.39 148.28 82.36 148.37 82.12 148.13 82.39" fill="#33363a"/><path d="M229.92,112.6a8.77,8.77,0,0,1-.07,1.15c0-.38,0-.77.05-1.15Z" fill="#33363a"/><path d="M183,40.71l-.94-.38-.95-.36c-1.77-.68-3.57-1.28-5.4-1.82l-2.07-.57c-.74-.2-1.48-.38-2.23-.55A75.51,75.51,0,0,0,78.92,110.6c0,.67,0,1.33,0,2,0,.38,0,.77,0,1.15a75.5,75.5,0,0,0,150.86,0c0-.38,0-.77.05-1.15,0-.67,0-1.33,0-2A75.62,75.62,0,0,0,183,40.71Zm39.89,72.44c-.93,6-16.78,13.53-43.3,16.58a24.84,24.84,0,0,1,0,7c17.22-2,32.74-6,41.85-11.84a68.51,68.51,0,0,1-134,0c9,5.81,24.3,9.79,41.3,11.77a23.18,23.18,0,0,1-.23-3.35,25.21,25.21,0,0,1,.26-3.6c-26.2-3.09-41.85-10.58-42.77-16.52,0-.84,0-1.7,0-2.55a68.59,68.59,0,0,1,66.62-68.48h2.1a67.67,67.67,0,0,1,7.58.45h0a66.62,66.62,0,0,1,11.52,2.33c.68.2,1.36.41,2,.63l1,.33,1,.34a68.63,68.63,0,0,1,45.19,64.42C222.92,111.45,222.9,112.31,222.87,113.15Z" fill="#33363a"/><path d="M167.83,130.73a13.92,13.92,0,0,0-27.36,0,13.68,13.68,0,0,0-.24,2.58,13.54,13.54,0,0,0,.73,4.43,13.9,13.9,0,0,0,26.36,0,13.73,13.73,0,0,0,.74-4.46A14.12,14.12,0,0,0,167.83,130.73Zm-3.8,7.16a10.91,10.91,0,0,1-19.78,0,10.92,10.92,0,0,1-.75-7,10.92,10.92,0,0,1,21.3,0,11.08,11.08,0,0,1,.26,2.39A10.82,10.82,0,0,1,164,137.89Z" fill="#33363a"/><path d="M179.57,129.73a25.66,25.66,0,0,0-50.83-.06,25.21,25.21,0,0,0-.26,3.6,23.18,23.18,0,0,0,.23,3.35,25.66,25.66,0,0,0,50.87.07,24.84,24.84,0,0,0,0-7Zm-7.21,7.66a18.67,18.67,0,0,1-36.43,0,18.2,18.2,0,0,1-.45-4.07,18.67,18.67,0,0,1,37.11-2.87,18.12,18.12,0,0,1,.23,2.87A18.58,18.58,0,0,1,172.36,137.39Z" fill="#33363a"/></g></svg>