<svg id="f2237efe-120f-4f8c-922f-b9b7c0eebbb4" data-name="Horizontal" xmlns="http://www.w3.org/2000/svg" viewBox="0 0 1085 304"><g id="ab1bc80b-0509-4252-be3e-fca1137f32c2" data-name="Expanded"><path d="M340.54,80.88a17.86,17.86,0,0,0-8-13.39q-7-4.77-17.75-4.77a33.38,33.38,0,0,0-13.24,2.4,20.39,20.39,0,0,0-8.66,6.56,15.47,15.47,0,0,0-3.07,9.45,13.68,13.68,0,0,0,2.1,7.65,17.74,17.74,0,0,0,5.52,5.38,38.59,38.59,0,0,0,7.39,3.59,79,79,0,0,0,7.59,2.34l12.16,3.15a94.32,94.32,0,0,1,12.21,4,49,49,0,0,1,11.6,6.57A31.68,31.68,0,0,1,357,123.84a29.41,29.41,0,0,1,3.31,14.4A33.25,33.25,0,0,1,354.91,157,36.75,36.75,0,0,1,339.17,170q-10.31,4.74-24.88,4.74-14,0-24.19-4.43a37.2,37.2,0,0,1-16-12.61,36.34,36.34,0,0,1-6.38-19.42h18.84a18.94,18.94,0,0,0,4.4,11.21,23.1,23.1,0,0,0,9.91,6.63,39.19,39.19,0,0,0,13.28,2.15,37.54,37.54,0,0,0,14.18-2.52,23.39,23.39,0,0,0,9.82-7.05,16.55,16.55,0,0,0,3.58-10.6,13.11,13.11,0,0,0-3.13-9.05,23.89,23.89,0,0,0-8.44-5.84,86.2,86.2,0,0,0-12-4.07l-14.71-4q-14.94-4.07-23.67-12t-8.72-20.9a31,31,0,0,1,5.84-18.77A38.51,38.51,0,0,1,292.72,51a54.32,54.32,0,0,1,22.48-4.47,53.11,53.11,0,0,1,22.33,4.44,37.8,37.8,0,0,1,15.28,12.18,30.9,30.9,0,0,1,5.83,17.77Z" fill="#ffd833"/><path d="M424.87,79.3V93.89h-51V79.3ZM387.56,56.94h18.17v88.29q0,5.29,1.58,7.93a8.09,8.09,0,0,0,4.1,3.59,15.8,15.8,0,0,0,5.5.94,20.53,20.53,0,0,0,3.83-.31l2.55-.48,3.28,15a32.63,32.63,0,0,1-4.49,1.24,37,37,0,0,1-7.29.7,32,32,0,0,1-13.37-2.55,22.92,22.92,0,0,1-10-8.27q-3.83-5.58-3.83-14Z" fill="#ffd833"/><path d="M483.27,174.52q-13.12,0-22.91-6a40.54,40.54,0,0,1-15.19-16.83q-5.42-10.81-5.41-25.27t5.41-25.4a40.48,40.48,0,0,1,15.19-16.9q9.78-6,22.91-6t22.9,6A40.48,40.48,0,0,1,521.36,101q5.42,10.88,5.41,25.4t-5.41,25.27a40.54,40.54,0,0,1-15.19,16.83Q496.39,174.52,483.27,174.52Zm.06-15.25q8.51,0,14.09-4.5a26.62,26.62,0,0,0,8.3-12,51.46,51.46,0,0,0,0-32.9,27,27,0,0,0-8.3-12.06q-5.58-4.56-14.09-4.56t-14.19,4.56a26.91,26.91,0,0,0-8.33,12.06,51.46,51.46,0,0,0,0,32.9,26.52,26.52,0,0,0,8.33,12Q474.75,159.27,483.33,159.27Z" fill="#ffd833"/><path d="M547,172.64V79.3h17.56V94.13h1a22.65,22.65,0,0,1,9-11.88,25.74,25.74,0,0,1,14.67-4.34c1.14,0,2.48,0,4,.12s2.79.18,3.68.3V95.71a37.9,37.9,0,0,0-3.89-.7,40.4,40.4,0,0,0-5.59-.39A23.76,23.76,0,0,0,576,97.32a20.29,20.29,0,0,0-10.85,18.32v57Z" fill="#ffd833"/><path d="M612.75,172.64V79.3h17.44V94.5h1.15a24.35,24.35,0,0,1,9.54-12.07,28.32,28.32,0,0,1,15.86-4.34q9.36,0,15.71,4.37a25.71,25.71,0,0,1,9.38,12h1a26.32,26.32,0,0,1,10.63-11.94,32.59,32.59,0,0,1,17.38-4.47q12.69,0,20.75,8t8,24v62.59H721.45V111.75q0-9.48-5.16-13.73A18.79,18.79,0,0,0,704,93.77q-8.87,0-13.79,5.43t-4.92,14v59.49H667.13v-62q0-7.6-4.74-12.22t-12.33-4.61a17.64,17.64,0,0,0-9.51,2.7,19.92,19.92,0,0,0-7,7.5,22.71,22.71,0,0,0-2.64,11.12v57.55Z" fill="#ffd833"/><path d="M804.15,174.52q-13.8,0-23.73-5.93a39.36,39.36,0,0,1-15.31-16.71q-5.39-10.77-5.38-25.3,0-14.34,5.38-25.28a41.2,41.2,0,0,1,15.07-17.07q9.69-6.14,22.69-6.14a45.74,45.74,0,0,1,15.31,2.61,37.1,37.1,0,0,1,13.31,8.2,38.6,38.6,0,0,1,9.3,14.5q3.4,8.89,3.4,21.6v6.44H770V117.83h56.39a27,27,0,0,0-2.92-12.73,22.16,22.16,0,0,0-8.17-8.78A23.08,23.08,0,0,0,803,93.1a23.69,23.69,0,0,0-13.33,3.73,25.27,25.27,0,0,0-8.75,9.73,28,28,0,0,0-3.07,13v10.63q0,9.36,3.31,15.92a23.36,23.36,0,0,0,9.27,10,27.33,27.33,0,0,0,13.91,3.43,28.21,28.21,0,0,0,9.42-1.49,20.09,20.09,0,0,0,7.35-4.46,19.48,19.48,0,0,0,4.74-7.36l17.2,3.1a31,31,0,0,1-7.39,13.28,35.77,35.77,0,0,1-13.3,8.81A49.57,49.57,0,0,1,804.15,174.52Z" fill="#33363a"/><path d="M903.74,174.52q-13.12,0-22.91-6a40.54,40.54,0,0,1-15.19-16.83q-5.42-10.81-5.41-25.27t5.41-25.4a40.48,40.48,0,0,1,15.19-16.9q9.78-6,22.91-6t22.9,6A40.42,40.42,0,0,1,941.83,101q5.42,10.88,5.41,25.4t-5.41,25.27a40.47,40.47,0,0,1-15.19,16.83Q916.86,174.52,903.74,174.52Zm.06-15.25q8.51,0,14.09-4.5a26.55,26.55,0,0,0,8.3-12,51.46,51.46,0,0,0,0-32.9,26.94,26.94,0,0,0-8.3-12.06q-5.58-4.56-14.09-4.56t-14.19,4.56a26.82,26.82,0,0,0-8.32,12.06,51.28,51.28,0,0,0,0,32.9,26.43,26.43,0,0,0,8.32,12Q895.24,159.27,903.8,159.27Z" fill="#33363a"/><path d="M985.64,117.22v55.42H967.48V79.3h17.43V94.5h1.16a26.49,26.49,0,0,1,10.12-11.91q6.88-4.5,17.4-4.5a33.91,33.91,0,0,1,16.71,4,27,27,0,0,1,11.12,11.82q4,7.83,3.95,19.38v59.37H1027.2V115.46q0-10.15-5.28-15.89t-14.52-5.74a22.59,22.59,0,0,0-11.21,2.73,19.39,19.39,0,0,0-7.72,8A26.38,26.38,0,0,0,985.64,117.22Z" fill="#33363a"/><path d="M249.52,260.51h-2.05L259,228.6h2.24l11.52,31.91h-2.06l-10.5-29.4H260Zm2.92-12h15.33v1.81H252.44Z" fill="#33363a"/><path d="M299.79,260.51V228.6h9.83a10.33,10.33,0,0,1,5.21,1.25,8.56,8.56,0,0,1,3.34,3.41,11,11,0,0,1,0,9.85,8.65,8.65,0,0,1-3.34,3.42,10.29,10.29,0,0,1-5.2,1.25h-8.47V246h8.43a8.26,8.26,0,0,0,4.2-1,6.78,6.78,0,0,0,2.68-2.76,9.07,9.07,0,0,0,0-8,6.68,6.68,0,0,0-2.69-2.76,8.3,8.3,0,0,0-4.21-1h-7.84v30.1Z" fill="#33363a"/><path d="M339.18,261a9,9,0,0,1-5.26-1.6,10.77,10.77,0,0,1-3.63-4.4,16,16,0,0,1,0-12.78,10.84,10.84,0,0,1,3.63-4.4,9.41,9.41,0,0,1,10.53,0,11,11,0,0,1,3.63,4.41,16.1,16.1,0,0,1,0,12.77,10.93,10.93,0,0,1-3.63,4.4A9,9,0,0,1,339.18,261Zm0-1.76a7.06,7.06,0,0,0,4.39-1.42,9.21,9.21,0,0,0,2.91-3.83,13.51,13.51,0,0,0,1-5.38,13.25,13.25,0,0,0-1-5.36,9.31,9.31,0,0,0-2.91-3.84,7.47,7.47,0,0,0-8.76,0,9.48,9.48,0,0,0-2.91,3.84,13.24,13.24,0,0,0-1,5.36,13.51,13.51,0,0,0,1,5.38,9.15,9.15,0,0,0,2.92,3.83A7,7,0,0,0,339.18,259.25Z" fill="#33363a"/><path d="M360.35,260.51V228.6h1.9v31.91Zm1.65-9.35,0-2.72h.5l12-11.86h2.48l-11,10.91-.19.07Zm13,9.35-10.1-12.76,1.37-1.26,11.16,14Z" fill="#33363a"/><path d="M395.27,261a9.91,9.91,0,0,1-5.64-1.61,10.59,10.59,0,0,1-3.71-4.39,16.2,16.2,0,0,1,0-12.74,11.06,11.06,0,0,1,3.62-4.43,9,9,0,0,1,5.27-1.62,9.33,9.33,0,0,1,3.81.8,9.58,9.58,0,0,1,3.18,2.32A10.89,10.89,0,0,1,404,243a13.73,13.73,0,0,1,.79,4.8V249H385.82v-1.73h17a10.15,10.15,0,0,0-1.06-4.69,8.71,8.71,0,0,0-2.88-3.32,7.17,7.17,0,0,0-4.1-1.23,7.08,7.08,0,0,0-4.24,1.33,9.18,9.18,0,0,0-2.95,3.59A12,12,0,0,0,386.5,248v.78a13.19,13.19,0,0,0,1.05,5.37,8.86,8.86,0,0,0,3,3.75,8,8,0,0,0,4.7,1.38,7.8,7.8,0,0,0,3.36-.66,7.46,7.46,0,0,0,2.28-1.62,8.16,8.16,0,0,0,1.34-1.83l1.73.7a8.56,8.56,0,0,1-1.69,2.39,9.12,9.12,0,0,1-2.9,2A9.86,9.86,0,0,1,395.27,261Zm-1.48-27.84,4.18-6.89h2.26l-4.69,6.89Z" fill="#33363a"/><path d="M415.71,260.51V236.58h1.85v3.61h.19a5.66,5.66,0,0,1,2.37-2.86,7.41,7.41,0,0,1,4.05-1.06,6.66,6.66,0,0,1,4.2,1.24,6.89,6.89,0,0,1,2.29,3.39h.18a6.42,6.42,0,0,1,2.51-3.37,7.68,7.68,0,0,1,4.48-1.26,6.53,6.53,0,0,1,5.31,2.19,9,9,0,0,1,1.83,6v16.06h-1.9V244.45a7.09,7.09,0,0,0-1.44-4.71,5.17,5.17,0,0,0-4.2-1.71,5.67,5.67,0,0,0-4.55,1.85,7,7,0,0,0-1.59,4.72v15.91h-1.9V244.32a7,7,0,0,0-1.41-4.54,5,5,0,0,0-4.2-1.75,6,6,0,0,0-3.28.87,5.87,5.87,0,0,0-2.14,2.4,7.88,7.88,0,0,0-.75,3.51v15.7Z" fill="#33363a"/><path d="M466.13,261a9,9,0,0,1-5.26-1.6,10.77,10.77,0,0,1-3.63-4.4,16,16,0,0,1,0-12.78,10.84,10.84,0,0,1,3.63-4.4,9.41,9.41,0,0,1,10.53,0,10.87,10.87,0,0,1,3.63,4.41A16.1,16.1,0,0,1,475,255a10.77,10.77,0,0,1-3.63,4.4A9,9,0,0,1,466.13,261Zm0-1.76a7,7,0,0,0,4.39-1.42,9.21,9.21,0,0,0,2.91-3.83,14.38,14.38,0,0,0,0-10.74,9.41,9.41,0,0,0-2.92-3.84,7.45,7.45,0,0,0-8.75,0,9.41,9.41,0,0,0-2.92,3.84,14.45,14.45,0,0,0,0,10.74,9.31,9.31,0,0,0,2.92,3.83A7,7,0,0,0,466.13,259.25Z" fill="#33363a"/><path d="M489.2,245v15.52h-1.9V236.58h1.85v3.79h.19a6.63,6.63,0,0,1,2.7-3,8.31,8.31,0,0,1,4.41-1.12,8.45,8.45,0,0,1,4.24,1,7.27,7.27,0,0,1,2.87,2.92,9.25,9.25,0,0,1,1,4.51v15.78h-1.9v-15.7a6.74,6.74,0,0,0-1.81-4.92,6.4,6.4,0,0,0-4.79-1.86,7.13,7.13,0,0,0-3.55.87,6.25,6.25,0,0,0-2.45,2.44A7.28,7.28,0,0,0,489.2,245Z" fill="#33363a"/><path d="M539.56,260.51l-8.77-31.91h2l7.79,28.9h.19l7.67-28.9h2.36l7.67,28.9h.19l7.79-28.9h2l-8.78,31.91h-2.24l-7.74-28.71h-.17l-7.75,28.71Z" fill="#33363a"/><path d="M585,261a9.91,9.91,0,0,1-5.64-1.61,10.59,10.59,0,0,1-3.71-4.39,16.09,16.09,0,0,1,0-12.74,11.06,11.06,0,0,1,3.62-4.43,8.94,8.94,0,0,1,5.27-1.62,9.33,9.33,0,0,1,3.81.8,9.58,9.58,0,0,1,3.18,2.32,10.89,10.89,0,0,1,2.16,3.64,13.73,13.73,0,0,1,.79,4.8V249H575.57v-1.73h17a10.28,10.28,0,0,0-1.06-4.69,8.71,8.71,0,0,0-2.88-3.32,7.45,7.45,0,0,0-8.35.1,9.24,9.24,0,0,0-2.94,3.59,12,12,0,0,0-1.13,5.05v.78a13.19,13.19,0,0,0,1,5.37,8.86,8.86,0,0,0,3,3.75,7.93,7.93,0,0,0,4.7,1.38,7.8,7.8,0,0,0,3.36-.66,7.46,7.46,0,0,0,2.28-1.62,8.16,8.16,0,0,0,1.34-1.83l1.73.7a8.78,8.78,0,0,1-1.69,2.39,9.12,9.12,0,0,1-2.9,2A9.9,9.9,0,0,1,585,261Z" fill="#33363a"/><path d="M611.81,261a8.67,8.67,0,0,1-3.8-.83,6.73,6.73,0,0,1-2.76-2.42,6.91,6.91,0,0,1-1-3.86,6.17,6.17,0,0,1,.53-2.63,5.26,5.26,0,0,1,1.63-2,9.51,9.51,0,0,1,2.84-1.36,23.09,23.09,0,0,1,4.13-.83c1.21-.15,2.3-.29,3.25-.43a6.85,6.85,0,0,0,2.26-.66,1.47,1.47,0,0,0,.81-1.37v-1a5.42,5.42,0,0,0-1.65-4.16,6.38,6.38,0,0,0-4.55-1.54,7.76,7.76,0,0,0-4.32,1.13,6,6,0,0,0-2.45,2.9l-1.8-.67a7.38,7.38,0,0,1,2-2.85,8.68,8.68,0,0,1,3-1.7,11.32,11.32,0,0,1,3.55-.56,10.3,10.3,0,0,1,3.06.45,7.8,7.8,0,0,1,2.6,1.37,6.67,6.67,0,0,1,1.82,2.35,8,8,0,0,1,.67,3.4v16.72h-1.91V256.2h-.14a8.54,8.54,0,0,1-1.7,2.43,7.89,7.89,0,0,1-2.6,1.75A8.72,8.72,0,0,1,611.81,261Zm.18-1.77a7.27,7.27,0,0,0,4-1.09,7.58,7.58,0,0,0,2.72-3,9.35,9.35,0,0,0,1-4.35v-3.52a3.07,3.07,0,0,1-1,.56,11.91,11.91,0,0,1-1.53.42c-.57.12-1.16.22-1.78.31l-1.79.24a17.76,17.76,0,0,0-4.27,1,5.16,5.16,0,0,0-2.39,1.69,4.14,4.14,0,0,0-.76,2.52,4.81,4.81,0,0,0,1.68,3.87A6.3,6.3,0,0,0,612,259.26Z" fill="#33363a"/><path d="M642.38,236.58v1.7H631.93v-1.7Zm-6.91-5.73h1.88v24a4.52,4.52,0,0,0,.57,2.39,3.53,3.53,0,0,0,1.5,1.37,4.59,4.59,0,0,0,2,.44,4.07,4.07,0,0,0,.9-.08,4.25,4.25,0,0,0,.72-.2l.47,1.73a7.08,7.08,0,0,1-1,.27,5.66,5.66,0,0,1-1.24.12,6.17,6.17,0,0,1-2.83-.67,5.48,5.48,0,0,1-2.16-2,5.55,5.55,0,0,1-.82-3.08Z" fill="#33363a"/><path d="M656.21,245v15.52h-1.9V228.6h1.9v11.77h.19a6.63,6.63,0,0,1,2.69-3,8.42,8.42,0,0,1,4.43-1.11,8.59,8.59,0,0,1,4.25,1,7.2,7.2,0,0,1,2.88,2.91,9.3,9.3,0,0,1,1,4.53v15.78H669.8v-15.7a6.72,6.72,0,0,0-1.83-4.93,6.46,6.46,0,0,0-4.81-1.85,7.27,7.27,0,0,0-3.58.87,6.23,6.23,0,0,0-2.47,2.44A7.18,7.18,0,0,0,656.21,245Z" fill="#33363a"/><path d="M693.29,261a9.91,9.91,0,0,1-5.64-1.61,10.51,10.51,0,0,1-3.71-4.39,16.09,16.09,0,0,1,0-12.74,10.89,10.89,0,0,1,3.62-4.43,8.91,8.91,0,0,1,5.26-1.62,9.33,9.33,0,0,1,3.81.8,9.58,9.58,0,0,1,3.18,2.32A11.08,11.08,0,0,1,702,243a14,14,0,0,1,.78,4.8V249H683.83v-1.73h17a10.15,10.15,0,0,0-1.06-4.69,8.54,8.54,0,0,0-2.88-3.32,7.44,7.44,0,0,0-8.34.1,9.35,9.35,0,0,0-3,3.59,12.19,12.19,0,0,0-1.13,5.05v.78a13,13,0,0,0,1.06,5.37,8.83,8.83,0,0,0,3,3.75,8,8,0,0,0,4.71,1.38,7.79,7.79,0,0,0,3.35-.66,7.64,7.64,0,0,0,2.29-1.62,8.48,8.48,0,0,0,1.34-1.83l1.73.7a8.83,8.83,0,0,1-1.7,2.39,9.07,9.07,0,0,1-2.89,2A9.93,9.93,0,0,1,693.29,261Z" fill="#33363a"/><path d="M713.72,260.51V236.58h1.85v3.74h.18a6.19,6.19,0,0,1,2.63-2.95,8,8,0,0,1,4.22-1.12h.5l.47,0v1.91a4.4,4.4,0,0,1-.45-.05,3.77,3.77,0,0,0-.63,0A7.19,7.19,0,0,0,719,239a6.29,6.29,0,0,0-2.44,2.36,6.64,6.64,0,0,0-.89,3.43v15.77Z" fill="#33363a"/><path d="M749.23,260.51h-2.06l11.52-31.91h2.24l11.51,31.91h-2.05l-10.5-29.4h-.16Zm2.91-12h15.33v1.81H752.14Z" fill="#33363a"/><path d="M782.1,269.48v-32.9H784v5.34h.23a10.4,10.4,0,0,1,1.59-2.83,7.48,7.48,0,0,1,6.11-2.87,8.26,8.26,0,0,1,5,1.59,10.3,10.3,0,0,1,3.33,4.39,17.86,17.86,0,0,1,0,12.82,10.46,10.46,0,0,1-3.34,4.39,8.13,8.13,0,0,1-5,1.6,7.76,7.76,0,0,1-3.57-.78,7.59,7.59,0,0,1-2.57-2.08,9.92,9.92,0,0,1-1.59-2.86H784v14.19ZM784,248.59a15,15,0,0,0,.93,5.46,8.79,8.79,0,0,0,2.68,3.8,6.92,6.92,0,0,0,8.36,0,8.87,8.87,0,0,0,2.68-3.83,16.28,16.28,0,0,0,0-10.82,8.75,8.75,0,0,0-2.67-3.8,7.06,7.06,0,0,0-8.4,0,8.62,8.62,0,0,0-2.67,3.77A15.13,15.13,0,0,0,784,248.59Z" fill="#33363a"/><path d="M812.39,269.48v-32.9h1.86v5.34h.23a10.36,10.36,0,0,1,1.58-2.83,7.48,7.48,0,0,1,6.12-2.87,8.28,8.28,0,0,1,5.05,1.59,10.3,10.3,0,0,1,3.33,4.39,17.93,17.93,0,0,1,0,12.82,10.36,10.36,0,0,1-3.33,4.39,8.13,8.13,0,0,1-5,1.6,7.83,7.83,0,0,1-3.58-.78,7.69,7.69,0,0,1-2.57-2.08,9.89,9.89,0,0,1-1.58-2.86h-.19v14.19Zm1.87-20.89a15,15,0,0,0,.94,5.46,8.71,8.71,0,0,0,2.68,3.8,6.92,6.92,0,0,0,8.36,0,8.87,8.87,0,0,0,2.68-3.83,15.18,15.18,0,0,0,.92-5.42,14.85,14.85,0,0,0-.92-5.4,8.74,8.74,0,0,0-2.66-3.8,7.08,7.08,0,0,0-8.41,0,8.68,8.68,0,0,0-2.66,3.77A14.91,14.91,0,0,0,814.26,248.59Z" fill="#33363a"/><path d="M79,113.75a8.77,8.77,0,0,1-.07-1.15h0C79,113,79,113.37,79,113.75Z" fill="#33363a"/><path d="M157.56,76.46l7.25-1.81-27.54,31.09L141,96.81l5.53-13.22L139.32,86,151.7,62.38l-14.22,3.27,10-24.8,1.1-2.71,1-.08.27,0a83.17,83.17,0,0,1,9.19-.15h0a81.35,81.35,0,0,1,14.12,1.72c.84.18,1.68.36,2.51.56l1.21.31-12.55,15,15.19-3Z" fill="#ffd833"/><path d="M148.51,81.81,151,81,141,99.88h0l-.71,1.34-.25-2h0L139.7,97l4.83-11.53L139.89,87a1.22,1.22,0,0,1-1.5-.62l-.09-.76v0a1,1,0,0,1,.11-.28L149.56,64,137.88,66.7a1.19,1.19,0,0,1-1.4-1.6l9.2-22.86,1.22,0h1.22l12.71.14L147.3,62.24l4.9-.75L162,60,144.49,83.1h0Z" fill="#ffbf31"/><path d="M179.07,51.35l-11.82,2.36,10.83-12.92-1.2-.31-1.21-.31L163.61,54.55a1.19,1.19,0,0,0,1.18,1.93l11.6-2.31L154.22,78.44l7.35-1.83L141,99.88l2.38-5.71,4.95-11.81.09-.24.14-.31,0-.08-4,1.37h0l-2.85,1,11-21a1.18,1.18,0,0,0-.42-1.55,1.21,1.21,0,0,0-.94-.16l-4,.91-8,1.83,8.79-21.8.71-1.77,1-2.46-.27,0-1,.08-1.28.11-1.19,3-.42,1-9.2,22.86a1.19,1.19,0,0,0,1.4,1.6L149.56,64,138.41,85.34a1,1,0,0,0-.11.28v0a1.16,1.16,0,0,0,.09.76,1.22,1.22,0,0,0,1.5.62l4.64-1.57L139.7,97l-1,2.44h0l-2.28,5.44a1.21,1.21,0,0,0,2,1.23l27-30.52a1.2,1.2,0,0,0-1.21-2l-3.38.85,19.31-21.16A1.19,1.19,0,0,0,179.07,51.35Z" fill="#33363a"/><polygon points="148.13 82.39 148.28 82.36 148.37 82.12 148.13 82.39" fill="#33363a"/><path d="M229.92,112.6a8.77,8.77,0,0,1-.07,1.15c0-.38,0-.77.05-1.15Z" fill="#33363a"/><path d="M183,40.71l-.94-.38-.95-.36c-1.77-.68-3.57-1.28-5.4-1.82l-2.07-.57c-.74-.2-1.48-.38-2.23-.55A75.51,75.51,0,0,0,78.92,110.6c0,.67,0,1.33,0,2,0,.38,0,.77,0,1.15a75.5,75.5,0,0,0,150.86,0c0-.38,0-.77.05-1.15,0-.67,0-1.33,0-2A75.62,75.62,0,0,0,183,40.71Zm39.89,72.44c-.93,6-16.78,13.53-43.3,16.58a24.84,24.84,0,0,1,0,7c17.22-2,32.74-6,41.85-11.84a68.51,68.51,0,0,1-134,0c9,5.81,24.3,9.79,41.3,11.77a23.18,23.18,0,0,1-.23-3.35,25.21,25.21,0,0,1,.26-3.6c-26.2-3.09-41.85-10.58-42.77-16.52,0-.84,0-1.7,0-2.55a68.59,68.59,0,0,1,66.62-68.48h2.1a67.67,67.67,0,0,1,7.58.45h0a66.62,66.62,0,0,1,11.52,2.33c.68.2,1.36.41,2,.63l1,.33,1,.34a68.63,68.63,0,0,1,45.19,64.42C222.92,111.45,222.9,112.31,222.87,113.15Z" fill="#33363a"/><path d="M167.83,130.73a13.92,13.92,0,0,0-27.36,0,13.68,13.68,0,0,0-.24,2.58,13.54,13.54,0,0,0,.73,4.43,13.9,13.9,0,0,0,26.36,0,13.73,13.73,0,0,0,.74-4.46A14.12,14.12,0,0,0,167.83,130.73Zm-3.8,7.16a10.91,10.91,0,0,1-19.78,0,10.92,10.92,0,0,1-.75-7,10.92,10.92,0,0,1,21.3,0,11.08,11.08,0,0,1,.26,2.39A10.82,10.82,0,0,1,164,137.89Z" fill="#33363a"/><path d="M179.57,129.73a25.66,25.66,0,0,0-50.83-.06,25.21,25.21,0,0,0-.26,3.6,23.18,23.18,0,0,0,.23,3.35,25.66,25.66,0,0,0,50.87.07,24.84,24.84,0,0,0,0-7Zm-7.21,7.66a18.67,18.67,0,0,1-36.43,0,18.2,18.2,0,0,1-.45-4.07,18.67,18.67,0,0,1,37.11-2.87,18.12,18.12,0,0,1,.23,2.87A18.58,18.58,0,0,1,172.36,137.39Z" fill="#33363a"/></g></svg>